<?xml version="1.0" encoding="UTF-8"?><svg id="a" xmlns="http://www.w3.org/2000/svg" width="526.4404" height="226.983" viewBox="0 0 526.4404 226.983"><path d="M255.8693,49.4782l-32.2187-32.1748h-47.2493c-11.2106,10.7541-22.5178,21.5897-32.8094,33.0814l.0912,127.0895,32.2187,32.1748h48.2484l31.8104-32.0837-.0912-128.0872ZM208.0182,145.9005h-15.9844v-64.3496h15.9844v64.3496Z"/><path d="M126.9944,129.7905l-15.846-16.1334,15.8459-16.4954v-47.6837s-32.3389-32.0547-32.3389-32.0547l-47.1261-.1172-2.1144,1.3803-30.6979,31.1993.0912,47.7748,15.4003,16.0649-15.4003,16.0649v47.6838c10.405,11.0707,21.1329,21.784,32.2187,32.1748h47.7488l32.3099-32.5826-.0912-47.276ZM78.6438,145.9005c-.4835-.4009-.9429,0-1.2488,0h-13.9864l-.7493-.7482v-14.965l.7493-.7482h15.2352v16.4615ZM78.6438,97.5136h-15.2352l-.7493-.7483v-15.2144h15.9844v15.9627Z"/><path d="M271.4566,129.439h47.7037l.7493.7483v15.7133l15.2535-.1863.7309-.5619v-15.4639l-7.9872-16.0008c-.1088-.5861.208-1.0482.3774-1.5643.8366-2.5493,7.6098-13.824,7.6098-14.8592v-15.7133h-15.9845v15.2145l-.7493.7483h-47.7037v-48.1375l32.4413-31.9525h47.5082l31.969,31.4265.5028,1.992-.1328,46.8188-15.8731,16.0649,15.8731,16.0649.1328,46.3199-.5028,1.992-31.8487,31.5466-46.3831.1327-1.9948-.5021-31.692-31.7032v-48.1375Z"/><polygon points="463.7699 161.8632 511.7234 161.8632 511.7234 209.7513 399.3325 209.7513 399.3325 161.115 447.2859 65.5881 399.3325 65.5881 399.3325 17.9495 400.0817 17.2012 510.9741 17.2012 511.7234 17.9495 511.7234 65.3387 463.7699 161.8632"/></svg>